<?xml version="1.0" encoding="utf-8"?>
<!-- Generator: Adobe Illustrator 22.1.0, SVG Export Plug-In . SVG Version: 6.00 Build 0)  -->
<svg version="1.1" id="Layer_1" xmlns="http://www.w3.org/2000/svg" xmlns:xlink="http://www.w3.org/1999/xlink" x="0px" y="0px"
	 viewBox="0 0 612 792" style="enable-background:new 0 0 612 792;" xml:space="preserve">
<style type="text/css">
	.st0{fill:#24D5A1;stroke:#08585D;stroke-width:4;stroke-miterlimit:10;}
</style>
<polygon class="st0" points="61.7,290 78.5,324.1 116.1,329.5 88.9,356.1 95.4,393.5 61.7,375.8 28.1,393.5 34.5,356.1 7.3,329.5 
	44.9,324.1 "/>
<polygon class="st0" points="177.2,290 194,324.1 231.6,329.5 204.4,356.1 210.8,393.5 177.2,375.8 143.6,393.5 150,356.1 
	122.8,329.5 160.4,324.1 "/>
<polygon class="st0" points="292.7,290 309.5,324.1 347.1,329.5 319.9,356.1 326.3,393.5 292.7,375.8 259.1,393.5 265.5,356.1 
	238.3,329.5 275.9,324.1 "/>
<polygon class="st0" points="408.2,290 425,324.1 462.6,329.5 435.4,356.1 441.8,393.5 408.2,375.8 374.6,393.5 381,356.1 
	353.8,329.5 391.4,324.1 "/>
<polygon class="st0" points="524.2,290 541,324.1 578.6,329.5 551.4,356.1 557.8,393.5 524.2,375.8 490.6,393.5 497,356.1 
	469.8,329.5 507.4,324.1 "/>
</svg>
